<?xml version="1.0" encoding="utf-8"?><!-- Uploaded to: SVG Repo, www.svgrepo.com, Generator: SVG Repo Mixer Tools -->
<svg width="800px" height="800px" viewBox="0 0 24 24" fill="none" xmlns="http://www.w3.org/2000/svg">
<path d="M18.7153 1.71609C18.3241 1.32351 18.3241 0.687013 18.7153 0.294434C19.1066 -0.0981448 19.7409 -0.0981448 20.1321 0.294434L22.4038 2.57397L22.417 2.58733C23.1935 3.37241 23.1917 4.64056 22.4116 5.42342L20.1371 7.70575C19.7461 8.09808 19.1122 8.09808 18.7213 7.70575C18.3303 7.31342 18.3303 6.67733 18.7213 6.285L20.0018 5L4.99998 5C4.4477 5 3.99998 5.44772 3.99998 6V13C3.99998 13.5523 3.55227 14 2.99998 14C2.4477 14 1.99998 13.5523 1.99998 13V6C1.99998 4.34315 3.34313 3 4.99998 3H19.9948L18.7153 1.71609Z" fill="#0F0F0F"/>
<path d="M22 11C22 10.4477 21.5523 10 21 10C20.4477 10 20 10.4477 20 11V18C20 18.5523 19.5523 19 19 19L4.00264 19L5.28213 17.7161C5.67335 17.3235 5.67335 16.687 5.28212 16.2944C4.8909 15.9019 4.2566 15.9019 3.86537 16.2944L1.59369 18.574L1.58051 18.5873C0.803938 19.3724 0.805727 20.6406 1.58588 21.4234L3.86035 23.7058C4.25133 24.0981 4.88523 24.0981 5.2762 23.7058C5.66718 23.3134 5.66718 22.6773 5.2762 22.285L3.99563 21L19 21C20.6568 21 22 19.6569 22 18L22 11Z" fill="#0F0F0F"/>
</svg>